<?xml version="1.0" standalone="no"?>
<!DOCTYPE svg PUBLIC "-//W3C//DTD SVG 20010904//EN"
 "http://www.w3.org/TR/2001/REC-SVG-20010904/DTD/svg10.dtd">
<svg version="1.0" xmlns="http://www.w3.org/2000/svg"
 width="512.000000pt" height="512.000000pt" viewBox="0 0 512.000000 512.000000"
 preserveAspectRatio="xMidYMid meet">
<metadata>
Created by potrace 1.14, written by Peter Selinger 2001-2017
</metadata>
<g transform="translate(0.000000,512.000000) scale(0.100000,-0.100000)"
fill="#000000" stroke="none">
<path d="M2800 4640 l0 -240 -400 0 -400 0 0 -1840 0 -1840 -481 0 c-453 0
-480 1 -475 18 2 9 23 85 45 167 22 83 56 211 76 285 20 74 90 335 156 580 65
245 128 479 139 520 12 41 23 84 25 95 3 11 36 137 75 280 39 143 73 267 74
275 2 8 10 35 17 60 7 25 13 50 15 55 1 6 39 147 84 315 45 168 88 328 95 355
14 52 41 154 77 285 46 172 69 262 66 265 -2 1 -39 11 -83 23 -44 11 -105 27
-135 36 -287 79 -545 145 -549 141 -4 -5 -87 -306 -175 -640 -19 -71 -46 -175
-61 -230 -15 -55 -38 -140 -51 -190 -14 -49 -40 -148 -59 -220 -20 -71 -37
-138 -40 -149 -2 -10 -12 -44 -21 -75 -9 -31 -18 -64 -20 -75 -2 -10 -11 -44
-20 -75 -9 -31 -18 -64 -19 -74 -2 -9 -17 -65 -34 -125 -16 -59 -53 -195 -81
-302 -28 -107 -63 -235 -77 -285 -14 -49 -26 -97 -28 -105 -2 -8 -10 -42 -19
-75 -9 -33 -19 -67 -21 -75 -2 -8 -11 -42 -20 -75 -9 -33 -18 -67 -20 -75 -2
-8 -11 -40 -19 -70 -8 -30 -24 -91 -36 -135 -11 -44 -46 -171 -76 -282 -29
-111 -54 -205 -54 -210 0 -5 39 -19 88 -31 48 -13 94 -25 102 -27 36 -10 287
-77 305 -81 11 -2 74 -20 140 -39 l120 -34 -392 0 -393 -1 0 -160 0 -160 2320
0 2320 0 0 160 0 160 -80 0 -80 0 0 2000 0 2000 -480 0 -480 0 0 80 0 80 -480
0 -480 0 0 -240z"/>
</g>
</svg>
